<svg width="1280" height="320" viewBox="0 0 1280 320" fill="none" xmlns="http://www.w3.org/2000/svg">
  <defs>
    <linearGradient id="bg" x1="0" y1="0" x2="1280" y2="320" gradientUnits="userSpaceOnUse">
      <stop stop-color="#07111F"/>
      <stop offset="1" stop-color="#132A45"/>
    </linearGradient>
    <linearGradient id="panel" x1="0" y1="0" x2="1" y2="1">
      <stop stop-color="#1C395A"/>
      <stop offset="1" stop-color="#2C5E73"/>
    </linearGradient>
    <linearGradient id="accent" x1="0" y1="0" x2="1" y2="1">
      <stop stop-color="#55E6C1"/>
      <stop offset="1" stop-color="#35B6E8"/>
    </linearGradient>
    <filter id="shadow" x="-20%" y="-20%" width="140%" height="140%">
      <feDropShadow dx="0" dy="18" stdDeviation="18" flood-color="#000000" flood-opacity="0.35"/>
    </filter>
  </defs>

  <rect width="1280" height="320" rx="28" fill="url(#bg)"/>
  <circle cx="1110" cy="70" r="92" fill="#1F3D63" fill-opacity="0.28"/>
  <circle cx="1020" cy="238" r="140" fill="#0E273C" fill-opacity="0.45"/>
  <circle cx="180" cy="248" r="146" fill="#12324D" fill-opacity="0.4"/>

  <g filter="url(#shadow)">
    <rect x="92" y="62" width="334" height="196" rx="26" fill="#0B1726" stroke="#7EE9D0" stroke-opacity="0.22"/>
    <rect x="92" y="62" width="334" height="36" rx="26" fill="#12263B"/>
    <circle cx="125" cy="80" r="6" fill="#FF5F57"/>
    <circle cx="145" cy="80" r="6" fill="#FEBC2E"/>
    <circle cx="165" cy="80" r="6" fill="#28C840"/>
    <rect x="118" y="112" width="280" height="122" rx="18" fill="url(#panel)"/>
    <rect x="150" y="144" width="128" height="58" rx="16" fill="#0E1A2A"/>
    <path d="M198 158L230 173L198 188V158Z" fill="url(#accent)"/>
    <circle cx="314" cy="160" r="14" fill="#55E6C1"/>
    <circle cx="314" cy="196" r="14" fill="#FF6B6B"/>
    <circle cx="280" cy="196" r="14" fill="#F9D65C"/>
  </g>

  <text x="500" y="118" fill="#F7FBFF" font-family="Segoe UI, Arial, sans-serif" font-size="54" font-weight="700">
    Browser Tools for TestCafe
  </text>
  <text x="500" y="164" fill="#9FC0D8" font-family="Segoe UI, Arial, sans-serif" font-size="23" font-weight="500">
    Maintained fork with distinct branding and Marketplace metadata
  </text>
  <text x="500" y="204" fill="#C7D9E8" font-family="Segoe UI, Arial, sans-serif" font-size="19" font-weight="400">
    Run TestCafe tests from VS Code with browser detection, debug support, and custom flags
  </text>
  <g>
    <rect x="500" y="228" width="154" height="38" rx="19" fill="url(#accent)"/>
    <text x="577" y="252" text-anchor="middle" fill="#06111C" font-family="Segoe UI, Arial, sans-serif" font-size="18" font-weight="700">
      Browser-aware
    </text>
    <rect x="668" y="228" width="138" height="38" rx="19" fill="#17314A" stroke="#4BC6E2" stroke-opacity="0.35"/>
    <text x="737" y="252" text-anchor="middle" fill="#D7F8FF" font-family="Segoe UI, Arial, sans-serif" font-size="18" font-weight="700">
      Distinct
    </text>
    <rect x="820" y="228" width="190" height="38" rx="19" fill="#17314A" stroke="#55E6C1" stroke-opacity="0.35"/>
    <text x="915" y="252" text-anchor="middle" fill="#D7F8FF" font-family="Segoe UI, Arial, sans-serif" font-size="18" font-weight="700">
      Maintained fork
    </text>
  </g>
</svg>
